<svg xmlns="http://www.w3.org/2000/svg" xmlns:xlink="http://www.w3.org/1999/xlink" viewBox="0 0 56 56"><defs><style>.cls-1{fill:none;}.cls-2{clip-path:url(#clip-path);}.cls-3{fill:#f39e33;}.cls-4{fill:#ed781b;}.cls-5{fill:#eee;}.cls-6{fill:#989898;}.cls-7{fill:#323333;}</style><clipPath id="clip-path" transform="translate(0)"><rect class="cls-1" width="56" height="56"/></clipPath></defs><g id="レイヤー_2" data-name="レイヤー 2"><g id="レイヤー_1-2" data-name="レイヤー 1"><g id="アートワーク_87" data-name="アートワーク 87"><g class="cls-2"><g class="cls-2"><rect class="cls-3" width="56" height="56" rx="12"/><path class="cls-4" d="M43.26,14.29l-17.52,27L15.38,44.06,27.9,56H44A12,12,0,0,0,56,44V27.88Z" transform="translate(0)"/><path class="cls-5" d="M27.5,11.62H17.65a6,6,0,0,0-6,6V27.5H27.5Z" transform="translate(0)"/><polygon class="cls-6" points="20.32 18.8 20.32 16.34 18.8 16.34 18.8 18.8 16.34 18.8 16.34 20.32 18.8 20.32 18.8 22.78 20.32 22.78 20.32 20.32 22.78 20.32 22.78 18.8 20.32 18.8"/><path class="cls-5" d="M27.5,44.38H17.65a6,6,0,0,1-6-6V28.5H27.5Z" transform="translate(0)"/><polygon class="cls-6" points="22.74 33.82 21.67 32.75 19.56 34.85 17.45 32.75 16.38 33.82 18.48 35.93 16.38 38.04 17.45 39.11 19.56 37.01 21.67 39.11 22.74 38.04 20.64 35.93 22.74 33.82"/><path class="cls-5" d="M28.5,11.62h9.85a6,6,0,0,1,6,6V27.5H28.5Z" transform="translate(0)"/><rect class="cls-6" x="33.22" y="18.8" width="6.45" height="1.52"/><path class="cls-6" d="M28.5,44.38h9.85a6,6,0,0,0,6-6V28.5H28.5Z" transform="translate(0)"/><rect class="cls-5" x="33.17" y="36.62" width="6.45" height="1.52"/><rect class="cls-5" x="33.17" y="33.79" width="6.45" height="1.52"/><polygon class="cls-7" points="44.38 27.5 28.5 27.5 28.5 11.62 27.5 11.62 27.5 27.5 11.62 27.5 11.62 28.5 27.5 28.5 27.5 44.38 28.5 44.38 28.5 28.5 44.38 28.5 44.38 27.5"/></g></g></g></g></g></svg>