<svg xmlns="http://www.w3.org/2000/svg" viewBox="0 0 56 56"><defs><style>.cls-1{isolation:isolate;}.cls-2{fill:#687a7f;}.cls-3{fill:#4d6268;}.cls-4{fill:none;}.cls-5{fill:#eee;}.cls-6{fill:#ea5656;}.cls-7{fill:#ccc;}.cls-8{fill:#5e2f00;}.cls-9{opacity:0.4;mix-blend-mode:multiply;}</style></defs><g class="cls-1"><g id="レイヤー_2" data-name="レイヤー 2"><g id="買い物かご"><rect class="cls-2" width="56" height="56" rx="12"/><path class="cls-3" d="M45.82,19.69,28.91,31.22,11.51,14.7H4.69L22.8,32,21.62,42.77l-.45,2.89L31.1,56H44A12,12,0,0,0,56,44V31.87Z"/><rect class="cls-4" width="56" height="56" rx="12"/><rect class="cls-5" x="19.95" y="20.98" width="23.58" height="12.29"/><path class="cls-6" d="M44.19,19.26h-28l4.09,17.32H41.85c1.82,0,2.76-1.49,3.31-3.31l2.34-10.7A3.32,3.32,0,0,0,44.19,19.26Zm-6.28,14H26.57a1.17,1.17,0,0,1,0-2.34H37.91a1.17,1.17,0,0,1,0,2.34Zm2.21-4.34H24.36a1.17,1.17,0,1,1,0-2.34H40.12a1.17,1.17,0,0,1,0,2.34Zm1.94-4.34H22.42a1.17,1.17,0,0,1,0-2.34H42.06a1.17,1.17,0,0,1,0,2.34Z"/><path class="cls-7" d="M46.93,42H20.87a1.46,1.46,0,0,1-1.42-1.13L13.8,17.9A3.78,3.78,0,0,0,10.1,15H8.22a1.46,1.46,0,1,1,0-2.92H10.1a6.69,6.69,0,0,1,6.55,5.2L22,39.05h24.9a1.46,1.46,0,0,1,0,2.92Z"/><path d="M23.61,48.38a3.66,3.66,0,1,1,3.65-3.65A3.66,3.66,0,0,1,23.61,48.38Zm0-5.56a1.91,1.91,0,1,0,1.9,1.91A1.91,1.91,0,0,0,23.61,42.82Z"/><path d="M39.88,48.38a3.66,3.66,0,1,1,3.66-3.65A3.66,3.66,0,0,1,39.88,48.38Zm0-5.56a1.91,1.91,0,1,0,1.9,1.91A1.91,1.91,0,0,0,39.88,42.82Z"/><rect class="cls-8" x="3.94" y="11.87" width="6.97" height="3.31"/><g class="cls-9"><path class="cls-7" d="M46.93,39.11H24.19L20.72,42l.15,0h.36A3.66,3.66,0,1,0,26,42H37.51a3.64,3.64,0,0,0,2.37,6.41A3.64,3.64,0,0,0,42.26,42h4.67a1.46,1.46,0,0,0,0-2.92ZM23.61,46.69a1.9,1.9,0,1,1,1.9-1.9A1.9,1.9,0,0,1,23.61,46.69Zm16.27,0a1.9,1.9,0,1,1,1.9-1.9A1.91,1.91,0,0,1,39.88,46.69Z"/><path class="cls-7" d="M41.85,36.64c1.82,0,2.76-1.49,3.31-3.31l2.34-10.7a3.3,3.3,0,0,0-.88-2.23L27.15,36.64Z"/></g></g></g></g></svg>