<svg viewBox="0 0 56 56" xmlns="http://www.w3.org/2000/svg"><rect fill="#80b8db" height="56" rx="12" width="56"/><path d="m28.706 7.716-5.9 38.469 18.175 9.815h3.019a12 12 0 0 0 12-12v-22.5z" fill="#6a99b7"/><path d="m28.239 9.815h-.478c-2.7 4.1-7.682 7.094-13.607 7.9v14.385s3.017 10.77 13.817 14.081l.029-.01.029.01c10.8-3.307 13.817-14.081 13.817-14.081v-14.382c-5.925-.809-10.91-3.801-13.607-7.903z" fill="#eee"/><path d="m28.239 9.815c2.7 4.1 7.682 7.094 13.607 7.9v14.385s-3.017 10.77-13.817 14.081l-.029-.006-.029.01c-10.8-3.311-13.817-14.085-13.817-14.085v-14.382c5.925-.809 10.91-3.8 13.607-7.9h.478m0-2.154h-.478a2.154 2.154 0 0 0 -1.8.971c-2.4 3.646-6.92 6.245-12.1 6.952a2.153 2.153 0 0 0 -1.861 2.131v14.382a2.149 2.149 0 0 0 .08.581c.136.486 3.47 11.945 15.26 15.559a2.16 2.16 0 0 0 .631.095h.058a2.16 2.16 0 0 0 .631-.095c11.79-3.61 15.124-15.069 15.26-15.555a2.149 2.149 0 0 0 .08-.585v-14.382a2.153 2.153 0 0 0 -1.863-2.134c-5.178-.707-9.7-3.306-12.1-6.952a2.154 2.154 0 0 0 -1.8-.971z" fill="#83ba02"/><path d="m28.189 13.654h-.378a15.189 15.189 0 0 1 -10.734 6.234v11.35s2.38 8.5 10.9 11.108l.023-.008.023.008c8.52-2.612 10.9-11.108 10.9-11.108v-11.35a15.189 15.189 0 0 1 -10.734-6.234z" fill="#83ba02"/><path d="m28.189 13.654h-.189v28.684l.023.008c8.52-2.612 10.9-11.108 10.9-11.108v-11.35a15.189 15.189 0 0 1 -10.734-6.234z" fill="#a57413" opacity=".2"/><path d="m26.35 32.685-4.217-4.866 2.119-1.836 2.265 2.612 5.387-5.28 1.963 2.003z" fill="#fff"/></svg>