<svg xmlns="http://www.w3.org/2000/svg" xmlns:xlink="http://www.w3.org/1999/xlink" viewBox="0 0 56 56"><defs><style>.cls-1{fill:none;}.cls-2{clip-path:url(#clip-path);}.cls-3{fill:#e1697e;}.cls-4{fill:#dd4d64;}.cls-5{fill:#b4b4b4;}.cls-6{fill:#888988;}.cls-7{fill:#1e2328;}.cls-8{fill:#c1e3f5;}.cls-9{fill:#ddedf5;}.cls-10{opacity:0.1;}.cls-11{clip-path:url(#clip-path-4);}.cls-12{fill:#040000;}</style><clipPath id="clip-path" transform="translate(0 0)"><rect class="cls-1" width="56" height="56"/></clipPath><clipPath id="clip-path-4" transform="translate(0 0)"><rect class="cls-1" x="27.88" y="9.33" width="19.87" height="37.34"/></clipPath></defs><g id="レイヤー_2" data-name="レイヤー 2"><g id="レイヤー_1-2" data-name="レイヤー 1"><g id="アートワーク_66" data-name="アートワーク 66"><g class="cls-2"><g class="cls-2"><g class="cls-2"><path class="cls-3" d="M12,0H44A12,12,0,0,1,56,12V44A12,12,0,0,1,44,56H12A12,12,0,0,1,0,44V12A12,12,0,0,1,12,0" transform="translate(0 0)"/><path class="cls-4" d="M56,19.87l-9.6-8.43L32.77,23.29l-5.43.95,1.56,9.31-.27,6.61-11.26,4.3L15,46.07,24.25,56H44A12,12,0,0,0,56,44Z" transform="translate(0 0)"/><polygon class="cls-5" points="38.23 44.52 17.77 44.52 20.07 30.63 35.93 30.63 38.23 44.52"/><path class="cls-6" d="M41.16,45.12a1.83,1.83,0,0,1-2,1.55H16.61a1.83,1.83,0,0,1-2-1.55,1.82,1.82,0,0,1,2-1.55H39.16a1.82,1.82,0,0,1,2,1.55" transform="translate(0 0)"/><rect class="cls-7" x="8.25" y="11.33" width="39.5" height="25.22" rx="2"/><rect class="cls-8" x="9.98" y="13.18" width="36.04" height="21.5" rx="2"/><rect class="cls-6" x="23.75" y="9.33" width="8.41" height="2.52"/><rect class="cls-6" x="23.8" y="35.97" width="8.4" height="2.52"/><path class="cls-9" d="M11.7,33.66c-.95.56-1.72.12-1.72-1V15.18a2,2,0,0,1,2-2H44c1.1,0,1.23.46.28,1Z" transform="translate(0 0)"/><g class="cls-10"><g class="cls-11"><path class="cls-12" d="M45.75,11.33H32.15v-2H27.88V46.67H39.16a1.83,1.83,0,0,0,2-1.55,1.83,1.83,0,0,0-2-1.56H38.08l-1.17-7h8.84a2,2,0,0,0,2-2V13.33a2,2,0,0,0-2-2" transform="translate(0 0)"/></g></g></g></g></g></g></g></g></svg>