<svg viewBox="0 0 56 56" xmlns="http://www.w3.org/2000/svg"><rect fill="#c9f236" height="56" rx="12" width="56"/><path d="m36.32288 12-7.56923 20.5-13.39917 11.5 15.09092 12h13.55461c6.627 0 12-5.373 12-12v-16.99906l-19.67712-15.00094z" fill="#b8db26"/><path d="m41.30042 44h-25.94595v-32h20.96841v4.74963h4.97754z" fill="#fffdfd"/><path d="m36.32908 16.74963v-4.74963l2.48505 2.37482 2.48629 2.37481z" fill="#ccc"/><path d="m14.69958 14.06607h13.26122v5.18912h-13.26122z" fill="#b33131"/><g fill="#fff"><path d="m18.05964 15.37497h.90245c.567 0 1.03378.20059 1.03378.83685 0 .61191-.47368.88162-1.01647.88162h-.30082v.85403h-.61895v-2.57249zm.88865 1.231c.30082 0 .44609-.14175.44609-.39414 0-.25943-.1661-.34924-.4634-.34924h-.25239v.74338h.26971z"/><path d="m20.43633 15.37497h.74001c.78477 0 1.30349.37697 1.30349 1.27252 0 .89541-.51872 1.29997-1.269 1.29997h-.77449v-2.57249zm.702 2.07461c.41484 0 .70876-.19017.70876-.80208 0-.61205-.29392-.78153-.70876-.78153h-.08305v1.58361z"/><path d="m22.95829 15.37497h1.64245v.51182h-1.02351v.56349h.87824v.5152h-.87824v.98198h-.61895v-2.57249z"/></g><path d="m20.1119 39.66128c-.72853 0-1.34571-.36909-1.64101-.99503-.34296-.72689-.14461-1.61651.50523-2.2662.90253-.90238 2.23502-1.39975 3.30577-1.79972l.05657-.02108c1.09613-.40947 2.25937-.77173 3.47547-1.08351.63781-1.03006 1.17898-2.09784 1.64635-3.09925-.92688-2.39463-.9398-5.1769.07928-8.05612.20192-.57056.70388-.95167 1.31022-.99488.60471-.04172 1.14854.26115 1.42677.79281.80484 1.53871.30822 4.31579-1.47591 8.25433.3826.8479.89852 1.63507 1.54079 2.34444 1.40984-.06087 2.92376.04276 4.61985.31.34801.05464 3.40687.59446 3.65942 2.64657.10586.86467-.23903 1.31007-.54695 1.53159-1.02324.73669-2.96949-.02702-4.73877-.8712l-.13347-.06354c-1.312-.61673-2.43753-1.39589-3.36352-2.3048-.6148.04751-1.20837.13006-1.78888.24705-.49751.10036-.98745.20874-1.46938.32574-1.06421 1.63433-2.38082 3.16086-4.04454 4.21142-.64301.40591-1.25559.67553-1.87262.82399-.11506.02761-.22849.04662-.33806.05701-.07186.00683-.14283.01039-.2126.01039zm4.62638-4.60486c-.67983.20399-1.33902.42491-1.97432.66246l-.05671.02108c-1.01032.37711-2.15559.80469-2.87121 1.52001-.34251.34266-.36152.68295-.26516.88724.10155.21557.33346.32188.63781.29278h.00119c.05464-.00505.11105-.01485.1691-.0288.48475-.1167.97795-.33583 1.50679-.66988 1.0991-.69394 2.04038-1.63433 2.8525-2.68488zm6.91797-1.11232c.6154.47123 1.30399.88932 2.06265 1.24594l.13986.06622c2.78613 1.32937 3.40821 1.05085 3.50471.98166.05508-.03949.07468-.19509.05003-.39611-.10764-.87477-1.67723-1.44162-2.64138-1.59335-1.11632-.17579-2.14698-.27734-3.11588-.30436zm-3.52164-2.14297c-.21498.43352-.44377.87358-.68859 1.31393.12056-.02524.24141-.05018.36271-.07483.34222-.06889.688-.12679 1.03912-.17341-.2619-.34237-.49959-.6978-.71324-1.0657zm.82473-9.24326c-.00831 0-.01618.0003-.02331.00089-.05657.00401-.19434.03029-.25002.18737-.73372 2.07319-.86942 4.08967-.46218 5.913 1.54435-3.78903 1.29359-5.34793.97513-5.95709-.06369-.12145-.16955-.14416-.23963-.14416z" fill="#b33131"/></svg>