<svg xmlns="http://www.w3.org/2000/svg" viewBox="0 0 56 56"><defs><style>.cls-1{fill:#64bef0;}.cls-2{fill:#008cc8;}.cls-3{fill:#c8be46;}.cls-4{fill:ivory;}.cls-5{fill:#787878;}.cls-6{fill:#c80000;}.cls-7{fill:#e10000;}</style></defs><title>スケジュール</title><g id="背景"><rect class="cls-1" width="56" height="56" rx="12" ry="12"/><path class="cls-2" d="M44,56A12,12,0,0,0,56,44V20L46,10H10V46L20,56Z"/></g><g id="アイコン"><path class="cls-3" d="M10,20V46H46V20Z"/><path class="cls-4" d="M11,21V45H45V21Z"/><rect class="cls-5" x="17.5" y="25.5" width="3" height="3"/><rect class="cls-5" x="20.5" y="25.5" width="3" height="3"/><rect class="cls-5" x="23.5" y="25.5" width="3" height="3"/><rect class="cls-5" x="23.5" y="28.5" width="3" height="3"/><rect class="cls-5" x="17.5" y="31.5" width="3" height="3"/><rect class="cls-5" x="20.5" y="31.5" width="3" height="3"/><rect class="cls-5" x="23.5" y="31.5" width="3" height="3"/><rect class="cls-5" x="23.5" y="34.5" width="3" height="3"/><rect class="cls-5" x="17.5" y="37.5" width="3" height="3"/><rect class="cls-5" x="20.5" y="37.5" width="3" height="3"/><rect class="cls-5" x="23.5" y="37.5" width="3" height="3"/><rect class="cls-5" x="29.5" y="25.5" width="3" height="3"/><rect class="cls-5" x="32.5" y="25.5" width="3" height="3"/><rect class="cls-5" x="32.5" y="28.5" width="3" height="3"/><rect class="cls-5" x="32.5" y="34.5" width="3" height="3"/><rect class="cls-5" x="32.5" y="31.5" width="3" height="3"/><rect class="cls-5" x="29.5" y="37.5" width="3" height="3"/><rect class="cls-5" x="32.5" y="37.5" width="3" height="3"/><rect class="cls-5" x="35.5" y="37.5" width="3" height="3"/><path class="cls-6" d="M10,10V20H46V10Zm18,7a2,2,0,1,1,2-2A2,2,0,0,1,28,17Z"/><path class="cls-7" d="M11,11v8H45V11Zm17,7a3,3,0,1,1,3-3A3,3,0,0,1,28,18Z"/></g></svg>