<svg id="レイヤー_1" data-name="レイヤー 1" xmlns="http://www.w3.org/2000/svg" width="56" height="56" viewBox="0 0 56 56"><defs><style>.cls-1{fill:#f39e33;}.cls-2{fill:#ed781b;}.cls-3{fill:#ddd;}.cls-4{fill:#afafaf;}.cls-5{fill:#8c8c8c;}.cls-6{fill:#757575;}.cls-7{fill:#fff;}.cls-8{fill:#dbdbdb;}.cls-9{fill:#ea4b4b;}.cls-10{fill:#af2b2b;}.cls-11{fill:#5b5b5b;}.cls-12{fill:#212121;}.cls-13{fill:#666;}.cls-14{fill:#595959;}.cls-15{fill:#848484;}</style></defs><g id="背景"><path class="cls-1" d="M12,0H44A12.03528,12.03528,0,0,1,56,12V44A12.03528,12.03528,0,0,1,44,56H12A12.03528,12.03528,0,0,1,0,44V12A12.03528,12.03528,0,0,1,12,0Z"/><path class="cls-2" d="M10.83059,46.19522,20.63057,56H44A12.03528,12.03528,0,0,0,56,44V27.92467l-10.5382-10.532-.06658.06145L34.38274,6.45513l-4.47463,4.6163,8.22831,8.218-6.46223,6.4907L16.40705,10.53647l-1.10588,1.27059-5.29582-1.71888L14.56,14.60705,9.4735,18.46891,22.25409,31.25408Z"/></g><g id="アイコン"><g id="レンチ"><path class="cls-3" d="M43.90432,45.80807s-3.274-1.58138-3.49293-1.8344a2.57962,2.57962,0,0,1,.24336-2.25138c.41774-.51932,1.01052-1.2025,1.40992-1.1681S45.92,42.278,45.92,42.278s.21793.03526.10733-.32715-1.64295-3.32579-2.84321-3.8645-2.95793-.2722-4.35523-1.07066c-.68957-.59885-19.26484-19.03834-19.95993-20.19644-1.46224-2.207-1.54637-4.63828-2.05965-5.72466S14.07528,8.567,10.23338,9.674c-.39888.07448-.17992.3275-.17992.3275l3.82147,2.23208a3.413,3.413,0,0,1-.42311,2.61517c-.505.65569-1.40733,1.7125-1.87948,1.64216A44.06622,44.06622,0,0,1,7.6069,14.51361c-.29017.03767-.17888.54526-.17888.54526s1.25395,2.97885,2.9649,4.05954a5.57591,5.57591,0,0,0,3.19036.48426,5.33951,5.33951,0,0,1,2.07674.55011c.61854.32371,20.04765,19.54861,20.22912,19.78452A9.73709,9.73709,0,0,1,37.10027,42.211c.14845.68888.31319,2.95258,1.31127,3.60586a6.39344,6.39344,0,0,0,5.13209.46476C44.30458,46.02393,43.90432,45.80807,43.90432,45.80807Z"/><path class="cls-4" d="M10.39289,19.11842a5.57608,5.57608,0,0,0,3.19037.48427,5.33975,5.33975,0,0,1,2.07675.55007c.61851.32374,20.04765,19.54864,20.22912,19.78457A9.73614,9.73614,0,0,1,37.10026,42.211c.14845.68888.31318,2.95258,1.31124,3.60588a6.39363,6.39363,0,0,0,5.13212.46476c.54572-.21582.15749-.39229.15749-.39229a35.6001,35.6001,0,0,1-3.31764-1.65882,3.06967,3.06967,0,0,1,.1999-2.48771l.09058-.11232-2.01081-2.00356a12.90836,12.90836,0,0,0-1.19523,2.76018,6.28067,6.28067,0,0,0-.556-.981A12.98426,12.98426,0,0,0,38.207,39.17171l-7.15226-7.13009A6.37907,6.37907,0,0,0,31.54819,29.76L30.607,31.54819,17.06587,18.107c-1.15485,1.36017-1.57059,1.39412-1.57059,1.39412a11.647,11.647,0,0,1-2.80321-.23618,8.62829,8.62829,0,0,0,3.22463-2.37132l-1.93961-1.8a1.67767,1.67767,0,0,1-.15827.26046c-.505.65569-1.68075,1.55271-2.15294,1.48235a39.46786,39.46786,0,0,1-3.88234-2.11764.44663.44663,0,0,0-.35552.34S8.682,18.03774,10.39289,19.11842Z"/><path class="cls-5" d="M37.46791,42.38711a5.45469,5.45469,0,0,1,1.234-2.81275,6.34574,6.34574,0,0,1,2.468-1.488,19.69065,19.69065,0,0,0-2.23373,1.77033A8.72929,8.72929,0,0,0,37.46791,42.38711Z"/><path class="cls-5" d="M12.182,19.31951A11.3294,11.3294,0,0,0,15.7487,17.4273a6.07892,6.07892,0,0,0,1.56423-3.32613,10.23221,10.23221,0,0,1-1.94407,3.07806A19.57223,19.57223,0,0,1,12.182,19.31951Z"/><path class="cls-6" d="M45.92,42.278s-3.45593-1.6894-3.85532-1.72378-.9922.64876-1.40994,1.16808a1.39425,1.39425,0,0,0-.17388.29019,1.33405,1.33405,0,0,1,.12575-.20358c.41773-.51932,1.01055-1.20247,1.40994-1.16808s3.85532,1.72378,3.85532,1.72378a.11969.11969,0,0,0,.13337-.10821A.13326.13326,0,0,1,45.92,42.278Z"/><path class="cls-6" d="M10.34479,19.20506a5.57591,5.57591,0,0,0,3.19034.48424,5.33982,5.33982,0,0,1,2.07678.55011c.61854.3237,20.04762,19.5486,20.22909,19.78453a9.73614,9.73614,0,0,1,1.21113,2.27366c.14845.68887.31321,2.95262,1.31131,3.60588a6.39341,6.39341,0,0,0,5.132.46476,1.51617,1.51617,0,0,0,.41386-.218.52131.52131,0,0,0,.06884-.10688,1.30416,1.30416,0,0,1-.43457.23824,6.39363,6.39363,0,0,1-5.13212-.46476c-.99806-.6533-1.16279-2.917-1.31124-3.60588a9.73614,9.73614,0,0,0-1.21113-2.27366C35.70766,39.7014,16.27852,20.4765,15.66,20.15276a5.33975,5.33975,0,0,0-2.07675-.55007,5.57608,5.57608,0,0,1-3.19037-.48427C8.682,18.03774,7.428,15.05886,7.428,15.05886a.89205.89205,0,0,1,.00662-.38708c-.12342.14786-.05475.47369-.05475.47369S8.63385,18.12435,10.34479,19.20506Z"/><path class="cls-6" d="M13.58653,14.62711a3.40877,3.40877,0,0,0,.28838-2.39348l-3.82147-2.23209a.24973.24973,0,0,1-.05595-.16373c-.118.10291.00786.25037.00786.25037l3.82143,2.23205A3.38249,3.38249,0,0,1,13.58653,14.62711Z"/></g><g id="くぎぬき"><rect class="cls-7" x="21.42647" y="16.93228" width="4.75821" height="32.27867" transform="translate(29.76796 -7.23827) rotate(44.16088)"/><polygon class="cls-8" points="14.268 46.307 12.673 44.758 33.294 23.525 31.906 21.353 33.705 23.101 35.161 21.602 36.756 23.151 14.268 46.307"/><path class="cls-9" d="M16.20171,45.39713c2.35891-2.00515,5.40565-3.61493,10.51242-8.87352s5.00635-6.35931,5.5951-7.53232a.86081.86081,0,0,0-.173-1.0053l-3.49962-3.39858a.86071.86071,0,0,0-.99682-.15038c-1.15853.599-2.3161.51836-7.40048,5.75388s-6.61284,8.41758-8.53645,10.84291c-.00674.0085-.00818.019-.01457.02769L9.45058,42.66966c-1.45638,1.49968,3.72509,6.53156,5.18147,5.03188l1.5472-2.29163C16.18622,45.40435,16.1949,45.403,16.20171,45.39713Z"/><path class="cls-10" d="M16.20171,45.39713c2.35891-2.00515,5.40565-3.61493,10.51242-8.87352s5.00635-6.35931,5.5951-7.53232a.86081.86081,0,0,0-.173-1.0053l-1.35351-1.31443c.32028.93361-10.00359,11.79593-11.946,13.31636A45.95273,45.95273,0,0,1,14.00317,43.719c-.17141.09772-.36763.125-.49362.2547s-.04948.31878-.09338.47346c-.372,1.31043-1.59694,2.35975-2.04078,2.25061,1.21321,1.03973,2.60614,1.67364,3.25666,1.00378l1.5472-2.29163C16.18622,45.40435,16.1949,45.403,16.20171,45.39713Z"/><path class="cls-11" d="M31.39367,22.054H36.555a0,0,0,0,1,0,0v.91021a.18289.18289,0,0,1-.18289.18289H31.57657a.18289.18289,0,0,1-.18289-.18289V22.054a0,0,0,0,1,0,0Z" transform="translate(25.34686 -17.28187) rotate(44.16088)"/><path class="cls-12" d="M34.358,22.21126l-.76156.7842,1.71724,1.66767a.18292.18292,0,0,0,.25865-.00382l.6341-.653Z"/><path class="cls-6" d="M29.90811,11.07143l1.67159,1.4848a1.41655,1.41655,0,0,0,.68974.31486,13.126,13.126,0,0,0,2.42606-1.96171,10.0468,10.0468,0,0,0,1.48207-2.09145,1.84161,1.84161,0,0,0-.308-.67916L34.38274,6.45513a2.48853,2.48853,0,0,0-.75836-.119L29.7121,10.36474A2.75024,2.75024,0,0,0,29.90811,11.07143Z"/><path class="cls-6" d="M38.227,22.56952a6.61039,6.61039,0,0,1-1.978,1.41891.06955.06955,0,0,1-.07878-.01728l-3.66644-3.56058a.07394.07394,0,0,1-.00146-.10748c.30837-.29666,1.842-1.82212,2.29659-2.41955,1.15592-1.51909.38972-1.77114,2.01447-3.4442a7.5447,7.5447,0,0,1,3.453-2.04234.06911.06911,0,0,1,.06671.02046l5.25317,5.102s6.83666,6.59679,3.06526,15.81038l-.20874-1.01547a.04513.04513,0,0,1-.0016-.01989c.02924-.20378.63415-4.79917-3.55249-9.48807-1.8179-2.036-2.94884-3.07148-3.88255-2.87806C39.49134,20.24218,39.69246,21.06049,38.227,22.56952Z"/><path class="cls-13" d="M35.61561,9.63412a2.954,2.954,0,0,0-2.2583,2.2725A9.33,9.33,0,0,1,35.30784,13.526a7.03155,7.03155,0,0,1,1.05,1.44013s.923-.93291,1.26666-1.22356a8.32287,8.32287,0,0,1,1.21123-.73961,9.84378,9.84378,0,0,1-1.83139-1.22385A8.34157,8.34157,0,0,1,35.61561,9.63412Z"/><path class="cls-14" d="M35.61561,9.63412a1.25951,1.25951,0,0,1,.55273-.81245,7.23534,7.23534,0,0,0,1.57981,2.19772A5.59305,5.59305,0,0,0,40.26633,12.397l-1.39228.62992a4.02143,4.02143,0,0,1-1.91139-1.19868A7.14785,7.14785,0,0,1,35.61561,9.63412Z"/><path class="cls-14" d="M33.35731,11.90663a1.40748,1.40748,0,0,0-1.08787.96446s1.003-.16178,2.39837,1.19331c1.81886,1.76635.01552,3.97.01552,3.97a6.385,6.385,0,0,0,1.81995-2.83739c.03972-.83077-.45061-1.2891-1.02747-1.8493A8.18061,8.18061,0,0,0,33.35731,11.90663Z"/><path class="cls-15" d="M34.38807,6.46117l-.00531-.006a2.48845,2.48845,0,0,0-.75839-.119L29.7121,10.36476a2.75049,2.75049,0,0,0,.196.70668l.00149.00134Z"/></g></g></svg>