<svg viewBox="0 0 56 56" xmlns="http://www.w3.org/2000/svg"><rect fill="#51ace2" height="56" rx="12" width="56"/><path d="m28.58002 9 .17362 23.5-18.60534 6.34615 15.00094 17.15385h18.85075c6.627 0 12-5.373 12-12v-20.18424z" fill="#2999dc"/><path d="m45.20227 39.28855-16.36496 7.4804c-.60022.3232-1.32631.30633-1.91087-.04441l-16.20667-7.35508c-1.36282-.81768-1.21135-2.83918.25811-3.44464l17.32244-7.13736c.49659-.20461 1.05592-.19338 1.5439.03101l15.24918 7.01204c1.44905.66632 1.51314 2.70188.10887 3.45803z" fill="#c4575e"/><path d="m29.6513 9.70885c-.39607-.94513-1.74648-.94513-2.14255 0 0 0-9.51068 25.18207-9.51068 26.7805 0 2.02006 6.96712 3.77611 10.58194 3.77611 3.3938 0 10.58198-2.17782 10.58198-3.77611 0-1.59842-9.51068-26.7805-9.51068-26.7805z" fill="#dd6169"/><path d="m19.14869 32.61169h18.86268c-.51628-1.52344-1.1693-3.377-1.88259-5.36485h-15.0975c-.71329 1.98785-1.3663 3.84141-1.88259 5.36485z" fill="#ded6d5"/><path d="m22.92985 21.87256h11.30036c-.68387-1.86546-1.36308-3.7029-1.98056-5.3649h-7.33929c-.61748 1.66201-1.29663 3.49944-1.98051 5.3649z" fill="#ded6d5"/><path d="m9.79263 37.68355c-.01041.64642.28378 1.30022.92659 1.68591l16.20669 7.3551c.58456.35069 1.31063.36758 1.91085.04439l16.36499-7.48042c.73802-.39737 1.05961-1.14681.9986-1.86651l-18.20086 8.0952-18.20686-7.83366z" fill="#974b59"/></svg>