<?xml version="1.0" encoding="utf-8"?>
<!-- Generator: Adobe Illustrator 25.1.0, SVG Export Plug-In . SVG Version: 6.00 Build 0)  -->
<svg version="1.1" id="レイヤー_1" xmlns="http://www.w3.org/2000/svg" xmlns:xlink="http://www.w3.org/1999/xlink" x="0px"
	 y="0px" width="56px" height="56px" viewBox="0 0 56 56" style="enable-background:new 0 0 56 56;" xml:space="preserve">
<style type="text/css">
	.st0{fill:#51ACE2;}
	.st1{fill:#2999DC;}
	.st2{fill:#5C7777;}
	.st3{fill:#FFDC00;}
	.st4{fill:#EDCD00;}
	.st5{fill:#5DAA00;}
	.st6{fill:#FFFFFF;}
	.st7{fill:#E3C500;}
</style>
<g id="背景">
	<path class="st0" d="M12,0h32c6.6,0,12,5.4,12,12v32c0,6.6-5.4,12-12,12H12C5.4,56,0,50.6,0,44V12C0,5.4,5.4,0,12,0z"/>
</g>
<path class="st1" d="M56,32.1L37.7,13.8L8.1,35.6L28.6,56H44c6.6,0,12-5.4,12-12V32.1z"/>
<path class="st2" d="M28,44.5c-7.1,0-11.2-0.9-13.2-3c-1.8-1.9-1.8-4.4-1.7-7.1c0-0.5,0-1.1,0-1.6C13.1,26.3,19.8,21,28,21
	s14.9,5.3,14.9,11.7c0,0.5,0,1.1,0,1.6c0.1,2.7,0.1,5.2-1.7,7.1C39.2,43.6,35.1,44.5,28,44.5z M28,21.9c-7.7,0-14,4.9-14,10.8
	c0,0.6,0,1.1,0,1.6c-0.1,2.6-0.1,4.9,1.4,6.4c1.8,1.9,5.8,2.8,12.6,2.8s10.7-0.9,12.6-2.8c1.5-1.6,1.5-3.8,1.4-6.4
	c0-0.5,0-1.1,0-1.6C42,26.8,35.7,21.9,28,21.9z"/>
<ellipse class="st3" cx="28" cy="34" rx="19.9" ry="5.3"/>
<path class="st3" d="M46,31.8c-0.6-1.7-0.8-3.8-0.8-3.8c0-9.5-7.7-17.2-17.2-17.2S10.8,18.5,10.8,28c0,0-0.2,2.1-0.8,3.8
	c-1.2,0.7-1.9,1.4-1.9,2.2c0,2.9,8.9,5.3,19.9,5.3s19.9-2.4,19.9-5.3C47.9,33.2,47.2,32.5,46,31.8z"/>
<path class="st4" d="M47.9,34c0-0.8-0.7-1.5-1.9-2.2c-0.6-1.7-0.8-3.8-0.8-3.8c0-9.5-7.7-17.2-17.2-17.2v28.5
	C39,39.3,47.9,36.9,47.9,34z"/>
<path class="st5" d="M28.9,34h-1.7c-0.3,0-0.5-0.2-0.5-0.5v-8.7c0-0.3,0.2-0.5,0.5-0.5h1.7c0.3,0,0.5,0.2,0.5,0.5v8.7
	C29.4,33.8,29.1,34,28.9,34z"/>
<path class="st5" d="M23.2,30v-1.7c0-0.3,0.2-0.5,0.5-0.5h8.7c0.3,0,0.5,0.2,0.5,0.5V30c0,0.3-0.2,0.5-0.5,0.5h-8.7
	C23.4,30.5,23.2,30.3,23.2,30z"/>
<path class="st6" d="M22.3,15.7c-0.4,0-0.8-0.2-0.9-0.6c-0.2-0.5,0-1.1,0.5-1.3c0.9-0.4,1.9-0.7,2.9-0.9c0.5-0.1,1.1,0.2,1.2,0.8
	c0.1,0.5-0.2,1.1-0.8,1.2c-0.9,0.2-1.7,0.4-2.6,0.8C22.6,15.7,22.5,15.7,22.3,15.7z"/>
<path class="st6" d="M13.5,29c-0.6,0-1-0.4-1-1c0-4.9,2.4-9.5,6.3-12.4c0.4-0.3,1.1-0.2,1.4,0.2c0.3,0.4,0.2,1.1-0.2,1.4
	c-3.4,2.5-5.5,6.6-5.5,10.8C14.5,28.6,14.1,29,13.5,29z"/>
<path class="st7" d="M28,37.7c-7.3,0-14-1.1-17.6-2.8c-0.2-0.1-0.4-0.4-0.2-0.7s0.4-0.4,0.7-0.2c3.4,1.7,10,2.7,17.2,2.7
	c7.9,0,15-1.2,18-3.2c0.2-0.1,0.5-0.1,0.7,0.2c0.1,0.2,0.1,0.5-0.2,0.7C43.4,36.4,36.1,37.7,28,37.7z"/>
</svg>
