<svg xmlns="http://www.w3.org/2000/svg" viewBox="0 0 56 56"><defs><style>.cls-1{fill:#f5b496;}.cls-2{fill:#eb6932;}.cls-3{fill:#3c3c50;}.cls-4{fill:#c8c8eb;}.cls-5{fill:#fff;}.cls-6{fill:#919191;}.cls-7{fill:#b496c8;}.cls-8{fill:#14aadc;}.cls-9{fill:#4fb9e6;}</style></defs><title>フォルダ</title><g id="背景"><rect class="cls-1" width="56" height="56" rx="12" ry="12"/></g><g id="アイコン"><path class="cls-2" d="M56,44V21.5L42,7.5l-29.21,41,7.5,7.5H44A12,12,0,0,0,56,44Z"/><path class="cls-3" d="M31.83,24.31A2.63,2.63,0,0,0,34,23l1.48-3a2.63,2.63,0,0,1,2.16-1.35H49.5a1.29,1.29,0,0,1,1.31,1.49L47.4,47a1.75,1.75,0,0,1-1.69,1.49H14.29A1.25,1.25,0,0,1,13,47L16.35,25.8a1.82,1.82,0,0,1,1.73-1.48Z"/><polygon class="cls-4" points="42 36 35.5 42.5 14 42.5 14 7.5 42 7.5 42 36"/><polygon class="cls-5" points="40.5 36.43 36.04 41 15.5 41 15.5 9 40.5 9 40.5 36.43"/><rect class="cls-6" x="17" y="11" width="22" height="4"/><rect class="cls-6" x="16.96" y="17" width="22.04" height="2"/><rect class="cls-6" x="16.96" y="21" width="22.04" height="2"/><rect class="cls-6" x="16.96" y="25" width="22" height="2"/><rect class="cls-6" x="16.96" y="29" width="22" height="2"/><rect class="cls-6" x="28.96" y="33" width="10" height="2"/><rect class="cls-7" x="16.96" y="33" width="11" height="6"/><rect class="cls-6" x="28.96" y="37" width="10" height="2"/><path class="cls-8" d="M27.17,26.31A2.63,2.63,0,0,1,25,25l-1.48-3a2.63,2.63,0,0,0-2.16-1.35H9.5a1.28,1.28,0,0,0-1.3,1.49L11.59,47a1.77,1.77,0,0,0,1.7,1.49H44.71A1.23,1.23,0,0,0,46,47L42.67,27.79a1.85,1.85,0,0,0-1.75-1.48Z"/><path class="cls-9" d="M15.15,46.64a1.82,1.82,0,0,1-1.73-1.48L10.09,23.94a1.25,1.25,0,0,1,1.27-1.48h9.09a2.63,2.63,0,0,1,2.16,1.35l1.48,3a2.63,2.63,0,0,0,2.16,1.35H39.06a1.92,1.92,0,0,1,1.8,1.47L44,45.17a1.18,1.18,0,0,1-1.2,1.47Z"/></g></svg>