<svg xmlns="http://www.w3.org/2000/svg" xmlns:xlink="http://www.w3.org/1999/xlink" viewBox="0 0 56 56"><defs><style>.cls-1{fill:none;}.cls-2{clip-path:url(#clip-path);}.cls-3{fill:#e99936;}.cls-4{fill:#e17521;}.cls-5{fill:#cbcbcb;}.cls-6{fill:#eee;}.cls-7{opacity:0.1;}.cls-8{clip-path:url(#clip-path-4);}.cls-9{fill:#333;}.cls-10{clip-path:url(#clip-path-5);}.cls-11{clip-path:url(#clip-path-6);}.cls-12{fill:#040000;}</style><clipPath id="clip-path" transform="translate(0 0)"><rect class="cls-1" width="56" height="56"/></clipPath><clipPath id="clip-path-4" transform="translate(0 0)"><rect class="cls-1" x="14.47" y="23.7" width="27.07" height="0.66"/></clipPath><clipPath id="clip-path-5" transform="translate(0 0)"><rect class="cls-1" x="18.95" y="13.74" width="18.11" height="0.66"/></clipPath><clipPath id="clip-path-6" transform="translate(0 0)"><rect class="cls-1" x="28" y="10.41" width="17.38" height="35.21"/></clipPath></defs><g id="レイヤー_2" data-name="レイヤー 2"><g id="レイヤー_1-2" data-name="レイヤー 1"><g id="アートワーク_65" data-name="アートワーク 65"><g class="cls-2"><g class="cls-2"><g class="cls-2"><rect class="cls-3" width="56" height="56" rx="12"/><path class="cls-4" d="M43.69,14.8l-27,30,12,11.2H44A12,12,0,0,0,56,44V27.88Z" transform="translate(0 0)"/><path class="cls-5" d="M39.09,43.14a1.64,1.64,0,0,1-1.61,1.49h-19a1.64,1.64,0,0,1-1.61-1.49L15.4,22.87a1.38,1.38,0,0,1,1.39-1.5H39.21a1.38,1.38,0,0,1,1.39,1.5Z" transform="translate(0 0)"/><path class="cls-5" d="M37.48,45.63h-19a2.65,2.65,0,0,1-2.6-2.42L14.41,22.94A2.38,2.38,0,0,1,15,21.13a2.41,2.41,0,0,1,1.76-.75H39.21a2.41,2.41,0,0,1,1.76.75,2.38,2.38,0,0,1,.62,1.81L40.08,43.21a2.65,2.65,0,0,1-2.6,2.42M16.79,22.37a.44.44,0,0,0-.3.12.4.4,0,0,0-.09.3l1.5,20.27a.66.66,0,0,0,.62.57h19a.64.64,0,0,0,.61-.57L39.6,22.79a.36.36,0,0,0-.1-.3.39.39,0,0,0-.29-.12Z" transform="translate(0 0)"/><rect class="cls-5" x="19.94" y="11.41" width="16.11" height="5.15" rx="1.66"/><path class="cls-5" d="M34.39,17.55H21.61A2.66,2.66,0,0,1,19,14.9V13.07a2.66,2.66,0,0,1,2.66-2.66H34.39a2.66,2.66,0,0,1,2.66,2.66V14.9a2.66,2.66,0,0,1-2.66,2.65M21.61,12.4a.68.68,0,0,0-.67.67V14.9a.67.67,0,0,0,.67.66H34.39a.67.67,0,0,0,.67-.66V13.07a.68.68,0,0,0-.67-.67Z" transform="translate(0 0)"/><path class="cls-5" d="M12,17.05A1.85,1.85,0,0,1,13.8,15.4H42.2A1.85,1.85,0,0,1,44,17.05l.37,4a1.49,1.49,0,0,1-1.51,1.65H13.13a1.49,1.49,0,0,1-1.51-1.65Z" transform="translate(0 0)"/><path class="cls-5" d="M42.87,23.7H13.13a2.5,2.5,0,0,1-1.86-.81A2.55,2.55,0,0,1,10.63,21L11,17a2.86,2.86,0,0,1,2.8-2.56H42.2A2.88,2.88,0,0,1,45,17l.36,4a2.55,2.55,0,0,1-.64,1.93,2.5,2.5,0,0,1-1.86.81M13,17.14l-.36,4a.52.52,0,0,0,.12.41.53.53,0,0,0,.39.16H42.87a.53.53,0,0,0,.39-.16.52.52,0,0,0,.12-.41l-.36-4a.87.87,0,0,0-.82-.75H13.8a.87.87,0,0,0-.82.75" transform="translate(0 0)"/><path class="cls-6" d="M22.48,40.11A1.08,1.08,0,0,1,21.4,39V27.48a1.08,1.08,0,1,1,2.16,0V39a1.09,1.09,0,0,1-1.08,1.08" transform="translate(0 0)"/><path class="cls-6" d="M28,40.11A1.08,1.08,0,0,1,26.92,39V27.48a1.08,1.08,0,1,1,2.16,0V39A1.08,1.08,0,0,1,28,40.11" transform="translate(0 0)"/><path class="cls-6" d="M33.52,40.19a1.09,1.09,0,0,1-1.08-1.08V27.56a1.08,1.08,0,0,1,2.16,0V39.11a1.08,1.08,0,0,1-1.08,1.08" transform="translate(0 0)"/><g class="cls-7"><g class="cls-8"><polygon class="cls-9" points="41.48 24.36 14.52 24.36 14.47 23.7 41.53 23.7 41.48 24.36"/></g></g><g class="cls-7"><g class="cls-10"><rect class="cls-9" x="18.95" y="13.74" width="18.1" height="0.66"/></g></g><g class="cls-7"><g class="cls-11"><path class="cls-12" d="M45,17A2.88,2.88,0,0,0,42.2,14.4H37.05V13.07a2.66,2.66,0,0,0-2.66-2.66H28V45.63h9.48a2.65,2.65,0,0,0,2.6-2.42L41.53,23.7h1.34A2.49,2.49,0,0,0,45.37,21Z" transform="translate(0 0)"/></g></g></g></g></g></g></g></g></svg>