<svg xmlns="http://www.w3.org/2000/svg" xmlns:xlink="http://www.w3.org/1999/xlink" viewBox="0 0 56 56"><defs><style>.cls-1{fill:none;}.cls-2{clip-path:url(#clip-path);}.cls-3{fill:#80b8db;}.cls-4{fill:#6a99b7;}.cls-5{fill:#4b4b4b;}.cls-6{fill:#6d6d6d;}.cls-7{fill:#f6f6f6;}.cls-8{fill:#fff;}.cls-9{fill:#d45971;}</style><clipPath id="clip-path" transform="translate(0 0)"><rect class="cls-1" width="56" height="56"/></clipPath></defs><g id="レイヤー_2" data-name="レイヤー 2"><g id="レイヤー_1-2" data-name="レイヤー 1"><g id="アートワーク_68" data-name="アートワーク 68"><g class="cls-2"><g class="cls-2"><rect class="cls-3" width="56" height="56" rx="12"/><path class="cls-4" d="M42.24,10.18,18.65,15,18,27V37L15.17,48.17,27.9,56H44A12,12,0,0,0,56,44V19Z" transform="translate(0 0)"/><rect class="cls-5" x="13.76" y="10.18" width="28.47" height="37.99" rx="1.41"/><path class="cls-6" d="M16.13,7.83H39.89a2.35,2.35,0,0,1,2.35,2.35V43.46a2.35,2.35,0,0,1-2.35,2.35H16.13a2.36,2.36,0,0,1-2.36-2.36V10.18A2.36,2.36,0,0,1,16.13,7.83Z"/><rect class="cls-7" x="16.24" y="35.29" width="23.55" height="8.24" rx="2"/><path class="cls-6" d="M37.43,21.14A9.42,9.42,0,1,1,28,11.72a9.42,9.42,0,0,1,9.42,9.42" transform="translate(0 0)"/><path class="cls-8" d="M28,31a9.9,9.9,0,1,1,9.89-9.9A9.91,9.91,0,0,1,28,31M28,12.2a8.95,8.95,0,1,0,9,8.94A9,9,0,0,0,28,12.2" transform="translate(0 0)"/><path class="cls-5" d="M30.14,21.14A2.13,2.13,0,1,1,28,19a2.13,2.13,0,0,1,2.13,2.12" transform="translate(0 0)"/><path class="cls-7" d="M40.65,10.11a1.13,1.13,0,1,1-2.26,0,1.13,1.13,0,1,1,2.26,0" transform="translate(0 0)"/><path class="cls-6" d="M39.52,11.52a1.42,1.42,0,1,1,1.41-1.41,1.41,1.41,0,0,1-1.41,1.41m0-2.26a.85.85,0,1,0,.85.85.85.85,0,0,0-.85-.85" transform="translate(0 0)"/><path class="cls-7" d="M40.65,43.23a1.13,1.13,0,1,1-1.13-1.13,1.14,1.14,0,0,1,1.13,1.13" transform="translate(0 0)"/><path class="cls-6" d="M39.52,44.64a1.41,1.41,0,1,1,1.41-1.41,1.41,1.41,0,0,1-1.41,1.41m0-2.26a.85.85,0,1,0,.85.85.85.85,0,0,0-.85-.85" transform="translate(0 0)"/><path class="cls-7" d="M17.4,10.11A1.13,1.13,0,1,1,16.27,9a1.14,1.14,0,0,1,1.13,1.13" transform="translate(0 0)"/><path class="cls-6" d="M16.27,11.52a1.42,1.42,0,1,1,1.41-1.41,1.41,1.41,0,0,1-1.41,1.41m0-2.26a.85.85,0,1,0,.85.85.85.85,0,0,0-.85-.85" transform="translate(0 0)"/><path class="cls-7" d="M40.65,26.7a1.13,1.13,0,1,1-1.13-1.13,1.13,1.13,0,0,1,1.13,1.13" transform="translate(0 0)"/><path class="cls-6" d="M39.52,28.12a1.42,1.42,0,1,1,1.41-1.41,1.41,1.41,0,0,1-1.41,1.41m0-2.26a.85.85,0,1,0,.85.85.85.85,0,0,0-.85-.85" transform="translate(0 0)"/><path class="cls-7" d="M17.4,26.7a1.13,1.13,0,1,1-1.13-1.13A1.13,1.13,0,0,1,17.4,26.7" transform="translate(0 0)"/><path class="cls-6" d="M16.27,28.12a1.42,1.42,0,1,1,1.41-1.41,1.41,1.41,0,0,1-1.41,1.41m0-2.26a.85.85,0,1,0,.85.85.85.85,0,0,0-.85-.85" transform="translate(0 0)"/><path class="cls-7" d="M17.4,43.23a1.13,1.13,0,1,1-1.13-1.13,1.14,1.14,0,0,1,1.13,1.13" transform="translate(0 0)"/><path class="cls-6" d="M16.27,44.64a1.41,1.41,0,1,1,1.41-1.41,1.41,1.41,0,0,1-1.41,1.41m0-2.26a.85.85,0,1,0,.85.85.85.85,0,0,0-.85-.85" transform="translate(0 0)"/><path class="cls-9" d="M24.85,36.58c-1.9,2.16-3.29,2.86-4.68,1.63s-.76-2.83,1.14-5A117.27,117.27,0,0,1,30.92,25c.81-.64,1.5,0,1,.86a121.86,121.86,0,0,1-7,10.68" transform="translate(0 0)"/><path class="cls-8" d="M22.18,36.83a.79.79,0,0,1-1.58,0,.79.79,0,0,1,1.58,0" transform="translate(0 0)"/></g></g></g></g></g></svg>