<svg xmlns="http://www.w3.org/2000/svg" xmlns:xlink="http://www.w3.org/1999/xlink" viewBox="0 0 56 56"><defs><style>.cls-1{fill:none;}.cls-2{fill:#46a0a0;}.cls-3{fill:#006478;}.cls-4{fill:#eee;}.cls-5{clip-path:url(#clip-path);}.cls-6{fill:#e85200;}.cls-7{fill:#ccc;}.cls-8{fill:#466070;}.cls-9{fill:#fff;}.cls-10{fill:#7f7f7f;}.cls-11{clip-path:url(#clip-path-2);}</style><clipPath id="clip-path"><polygon class="cls-1" points="12.36 31.19 9.41 31.19 9.61 11.71 12.17 11.71 12.36 31.19"/></clipPath><clipPath id="clip-path-2"><polygon class="cls-1" points="33.86 31.19 30.91 31.19 31.11 11.71 33.67 11.71 33.86 31.19"/></clipPath></defs><g id="レイヤー_2" data-name="レイヤー 2"><g id="レイヤー_1-2" data-name="レイヤー 1"><rect class="cls-2" width="56" height="56" rx="12"/><path class="cls-3" d="M56,30.44,34.06,11.38l-1.82,4.25L30.93,27.39l-18.37-16-1.42,4.19,0,9-4.68,20L19.61,56H44A12,12,0,0,0,56,44Z"/><polygon class="cls-4" points="12.36 31.19 9.41 31.19 9.61 11.71 12.17 11.71 12.36 31.19"/><g class="cls-5"><rect class="cls-6" x="7" y="18.6" width="7.64" height="1.76"/><rect class="cls-6" x="7" y="15.24" width="7.64" height="1.76"/><rect class="cls-6" x="7" y="21.96" width="7.64" height="1.76"/><rect class="cls-6" x="7" y="25.33" width="7.64" height="1.76"/></g><polygon class="cls-7" points="28 44.66 6.5 44.66 6.5 32.91 28 26.76 28 44.66"/><polygon class="cls-8" points="6.5 30.82 6.5 32.91 28 26.76 28 24.67 6.5 30.82"/><rect class="cls-9" x="10.14" y="33.35" width="2.86" height="2.86"/><rect class="cls-9" x="13.88" y="33.35" width="2.86" height="2.86"/><rect class="cls-9" x="17.62" y="33.35" width="2.86" height="2.86"/><rect class="cls-9" x="21.36" y="33.35" width="2.86" height="2.86"/><rect class="cls-10" x="12.43" y="38.37" width="9.64" height="6.28"/><polygon class="cls-8" points="23.34 39.72 11.15 39.72 11.77 37.58 22.73 37.58 23.34 39.72"/><rect class="cls-7" x="9.23" y="11.34" width="3.32" height="1.04"/><polygon class="cls-4" points="33.86 31.19 30.91 31.19 31.11 11.71 33.67 11.71 33.86 31.19"/><g class="cls-11"><rect class="cls-6" x="28.5" y="18.6" width="7.64" height="1.76"/><rect class="cls-6" x="28.5" y="15.24" width="7.64" height="1.76"/><rect class="cls-6" x="28.5" y="21.96" width="7.64" height="1.76"/><rect class="cls-6" x="28.5" y="25.33" width="7.64" height="1.76"/></g><polygon class="cls-7" points="49.5 44.66 28 44.66 28 32.91 49.5 26.76 49.5 44.66"/><polygon class="cls-8" points="28 30.82 28 32.91 49.5 26.76 49.5 24.67 28 30.82"/><rect class="cls-9" x="31.64" y="33.35" width="2.86" height="2.86"/><rect class="cls-9" x="35.38" y="33.35" width="2.86" height="2.86"/><rect class="cls-9" x="39.12" y="33.35" width="2.86" height="2.86"/><rect class="cls-9" x="42.86" y="33.35" width="2.86" height="2.86"/><rect class="cls-10" x="33.93" y="38.37" width="9.64" height="6.28"/><polygon class="cls-8" points="44.84 39.72 32.66 39.72 33.27 37.58 44.23 37.58 44.84 39.72"/><rect class="cls-7" x="30.73" y="11.34" width="3.32" height="1.04"/></g></g></svg>