<svg viewBox="0 0 56 56" xmlns="http://www.w3.org/2000/svg"><rect fill="#51ace2" height="56" rx="12" width="56"/><path d="m27.99999 11.44726-6.85091 4.95195-6.8287 26.1534 15.4263 13.44739h14.25333c6.627 0 12-5.373 12-12v-17.55179z" fill="#2999dc"/><path d="m28.00001 11.44726h-.00001c-4.43333 0-8.02725 3.59392-8.02725 8.02725v3.16797c0 4.43333 3.59392 8.02725 8.02725 8.02725h.00001c4.43333 0 8.02725-3.59392 8.02725-8.02725v-3.16797c0-4.43333-3.59392-8.02725-8.02725-8.02725zm6.00311 10.7958c0 3.31543-2.68768 6.00312-6.00311 6.00312h-.00001c-3.31543 0-6.00312-2.68769-6.00312-6.00312v-2.36914c0-3.31543 2.68769-6.00311 6.00312-6.00311h.00001c3.31543 0 6.00311 2.68768 6.00311 6.00311z" fill="#ccc"/><path d="m41.67962 42.55261h-27.35924l-1.32038-21.71149h30z" fill="#ead66d"/><path d="m31.78612 29.25733c0-2.09102-1.69511-3.78612-3.78612-3.78612s-3.78612 1.69511-3.78612 3.78612c0 1.37317.7335 2.57195 1.82761 3.2357l-1.11066 5.4295h6.13833l-1.23246-5.35549c1.16219-.64638 1.94942-1.88554 1.94942-3.30971z" fill="#5a5743"/><path d="m36.02726 20.84111v-1.36662c0-4.43332-3.59393-8.02723-8.02725-8.02723v2.42355c3.31544 0 6.00311 2.68768 6.00311 6.00311v.96719h-6.00311v21.7115h13.67963l1.32037-21.7115h-6.97274z" fill="#333" opacity=".1"/></svg>