<svg xmlns="http://www.w3.org/2000/svg" viewBox="0 0 56 56"><defs><style>.cls-1{isolation:isolate;}.cls-2{fill:#687a7f;}.cls-3{fill:#4d6268;}.cls-4{fill:#cecc72;}.cls-5{fill:none;}.cls-6{fill:red;}.cls-7{fill:#fff;}.cls-8,.cls-9{fill:#ccc;}.cls-8{opacity:0.6;}.cls-9{opacity:0.4;mix-blend-mode:multiply;}</style></defs><g class="cls-1"><g id="レイヤー_2" data-name="レイヤー 2"><g id="レイヤー_14" data-name="レイヤー 14"><rect class="cls-2" width="56" height="56" rx="12"/><path class="cls-3" d="M43.37,17.41,11.73,38.05,29.36,56H44A12,12,0,0,0,56,44V30Z"/><path class="cls-4" d="M27.78,28.09a.88.88,0,0,0,.44-.18Z"/><rect class="cls-5" width="56" height="56" rx="12"/><rect class="cls-6" x="10" y="16.35" width="35.99" height="23.31" rx="5.67"/><path class="cls-7" d="M33.17,26.7,26.42,22a1.47,1.47,0,0,0-2.31,1.21v9.34a1.48,1.48,0,0,0,2.31,1.22l6.75-4.67A1.48,1.48,0,0,0,33.17,26.7Z"/><path class="cls-8" d="M33.27,29.06a1.47,1.47,0,0,0-.21-2.43l-5.41-3.75Z"/><path class="cls-9" d="M44.29,18,12.79,38.88a5.66,5.66,0,0,0,2.88.8H40.33A5.69,5.69,0,0,0,46,34V22A5.65,5.65,0,0,0,44.29,18Z"/></g></g></g></svg>